<?xml version="1.0" standalone="no"?><!DOCTYPE svg PUBLIC "-//W3C//DTD SVG 1.1//EN" "http://www.w3.org/Graphics/SVG/1.1/DTD/svg11.dtd"><svg class="icon" width="48px" height="43.15px" viewBox="0 0 1139 1024" version="1.1" xmlns="http://www.w3.org/2000/svg"><path fill="#cdcdcd" d="M1137.575865 325.281278q0.908607 4.543035 0.908607 8.177462l0 8.177462q0 43.613132-15.446318 82.228926t-41.795918 68.599823l0 531.535049-1024 0 0-532.443656q-26.349601-29.984028-41.795918-68.145519t-15.446318-81.774623l0-341.636202 1137.575865 0 0 325.281278zM966.757764 561.519077q-13.629104 3.634428-27.258208 5.451642t-29.075421 1.817214q-51.790594 0-95.403727-20.897959t-75.414374-55.425022q-31.801242 34.527063-75.414374 55.425022t-95.403727 20.897959q-50.881988 0-94.49512-20.897959t-75.414374-55.425022q-31.801242 34.527063-75.414374 55.425022t-95.403727 20.897959q-28.166815 0-57.242236-7.268855l0 348.905058 795.939663 0 0-348.905058z" /></svg>