<?xml version="1.0" standalone="no"?><!DOCTYPE svg PUBLIC "-//W3C//DTD SVG 1.1//EN" "http://www.w3.org/Graphics/SVG/1.1/DTD/svg11.dtd"><svg class="icon" width="48px" height="48.00px" viewBox="0 0 1024 1024" version="1.1" xmlns="http://www.w3.org/2000/svg"><path fill="#cdcdcd" d="M683.456 400.128L511.168 606.592 339.584 399.552H252.224v33.472a29.888 29.888 0 0 1 28.096 11.968v3.648c37.696 48.448 186.048 217.152 227.904 269.184 41.856-52.672 189.568-221.376 227.904-270.4a29.888 29.888 0 0 1 28.096-12.032v-38.208h-75.456c0.064 0-3.52 0-5.312 2.944z m252.416-51.456c31.744 37.632 31.744 92.8 0 130.432l-205.12 223.68-151.936 163.904c-15.552 20.864-39.872 33.28-65.792 33.472a83.2 83.2 0 0 1-65.792-33.472L298.88 708.16l-211.136-228.48c-32-36.864-32-91.712 0-128.576l97.472-108.224 80.768-87.936a85.568 85.568 0 0 1 66.944-32.96h358.848c25.216 1.088 48.704 12.864 64.64 32.32 33.472 33.408 105.856 113.664 149.568 160.96l29.888 33.408z m0 0" /></svg>